<svg width="62" height="12" viewBox="0 0 62 12" fill="none" xmlns="http://www.w3.org/2000/svg">
<g clip-path="url(#clip0_350_20209)">
<path d="M12.6741 11.1561H11.3581V1.507C11.3582 1.47343 11.3493 1.44046 11.3323 1.41158C11.3152 1.38269 11.2908 1.35896 11.2614 1.34289C11.2321 1.32682 11.1989 1.31901 11.1656 1.32027C11.1322 1.32154 11.0997 1.33184 11.0717 1.35009L7.53408 3.68441L9.56404 5.02373C9.65518 5.08375 9.73002 5.16561 9.7818 5.26193C9.83358 5.35825 9.86067 5.46599 9.86064 5.57546V10.4962C9.86055 10.6713 9.79126 10.8391 9.668 10.9628C9.54474 11.0866 9.3776 11.1561 9.20333 11.1561H3.47078C3.29651 11.1561 3.12937 11.0866 3.00611 10.9628C2.88285 10.8391 2.81356 10.6713 2.81347 10.4962V5.57546C2.81346 5.46604 2.84053 5.35833 2.89224 5.26203C2.94396 5.16572 3.01869 5.08383 3.10973 5.02373L5.14003 3.68441L1.59704 1.34602C1.56971 1.32824 1.53797 1.3185 1.50541 1.3179C1.47285 1.31731 1.44077 1.32587 1.41281 1.34263C1.38281 1.35798 1.35777 1.38159 1.34062 1.41069C1.32347 1.4398 1.31492 1.4732 1.31597 1.507V11.1561H0V1.507C3.38906e-05 1.23636 0.0726308 0.97072 0.210166 0.737985C0.347701 0.505249 0.545098 0.314006 0.781626 0.184341C1.01815 0.054676 1.28508 -0.00862579 1.55438 0.0010843C1.82367 0.0107944 2.08539 0.0931581 2.31205 0.239525L6.33688 2.89478L10.3567 0.242914C10.5832 0.0952698 10.8451 0.0117465 11.1149 0.00115089C11.3848 -0.0094447 11.6524 0.0532801 11.8897 0.182711C12.127 0.312142 12.3251 0.503483 12.4632 0.736557C12.6012 0.969631 12.6741 1.2358 12.6741 1.507V11.1561ZM4.12809 9.83607H8.54602V5.93062L6.33688 4.47336L4.12809 5.93062V9.83607Z" fill="#E35D11"/>
<path d="M17.0924 3.40265H17.8526V4.36342H17.8772C18.2821 3.72291 18.8949 3.26709 19.8026 3.26709C20.575 3.26709 21.2373 3.66157 21.4948 4.4251H21.5194C21.9365 3.69851 22.6599 3.26709 23.5551 3.26709C24.6349 3.26709 25.468 3.96928 25.468 5.25031V9.77052H24.7199V5.31199C24.7199 4.36308 24.1561 3.92014 23.3834 3.92014C22.4514 3.92014 21.6665 4.58506 21.6665 5.71833V9.77052H20.906V5.31199C20.906 4.36308 20.3661 3.92014 19.6308 3.92014C18.7232 3.92014 17.8526 4.68368 17.8526 5.71833V9.77052H17.0924V3.40265Z" fill="#16335B"/>
<path d="M26.4735 6.59268C26.4735 4.69486 27.5897 3.25488 29.4169 3.25488C31.2441 3.25488 32.3357 4.69587 32.3357 6.59268C32.3357 8.48949 31.2458 9.9298 29.4169 9.9298C27.5881 9.9298 26.4735 8.48982 26.4735 6.59268ZM31.563 6.59268C31.563 5.10153 30.827 3.8954 29.4169 3.8954C27.9943 3.8954 27.2574 5.10255 27.2574 6.59268C27.2574 8.08281 27.9933 9.2903 29.4169 9.2903C30.827 9.2903 31.563 8.08315 31.563 6.59268Z" fill="#16335B"/>
<path d="M33.3901 3.40274H34.1503V4.58515H34.175C34.5674 3.84636 35.2298 3.3536 36.1125 3.3536C36.1827 3.35257 36.2528 3.36078 36.321 3.378V4.12934C35.8483 4.05142 35.364 4.16195 34.9713 4.43739C34.481 4.80679 34.1497 5.39817 34.1497 6.1495V9.77062H33.3901V3.40274Z" fill="#16335B"/>
<path d="M36.8973 10.3366H37.6333C37.7682 11.0757 38.4917 11.3712 39.4115 11.3712C40.7612 11.3712 41.3983 10.669 41.3983 9.54831V8.54043H41.3615C40.8955 9.25483 40.3067 9.64897 39.3501 9.64897C37.6822 9.64897 36.6277 8.3432 36.6277 6.47113C36.6277 4.40183 37.8786 3.26855 39.3501 3.26855C40.3313 3.26855 40.9444 3.69997 41.3615 4.38963H41.3983V3.40276H42.1463V9.52323C42.1463 10.2376 41.9378 10.8168 41.5575 11.2353C41.0794 11.7406 40.3802 11.9992 39.4361 11.9992C37.8786 12.0002 37.0077 11.2855 36.8973 10.3366ZM41.4472 6.4569C41.4472 4.95389 40.7852 3.90704 39.3993 3.90704C38.1485 3.90704 37.4126 4.92949 37.4126 6.48265C37.4126 7.93618 38.0503 9.00777 39.3869 9.00777C40.7973 9.0071 41.4472 7.98464 41.4472 6.45757V6.4569Z" fill="#16335B"/>
<path d="M43.164 8.14487C43.164 6.62966 44.3413 6.32195 45.7761 6.14945C47.0269 6.00169 47.4807 5.92781 47.4807 5.28729V5.16427C47.4807 4.30178 46.9409 3.88324 45.96 3.88324C44.8316 3.88324 44.2431 4.35126 44.1817 5.29949H43.4336C43.5197 4.06794 44.3288 3.26611 45.96 3.26611C47.3458 3.26611 48.2042 3.84529 48.2042 5.23714V8.69897C48.2042 9.08091 48.3513 9.2412 48.6212 9.25341C48.707 9.25341 48.793 9.22866 48.9033 9.20393H48.9401V9.75836C48.7775 9.82818 48.6017 9.86182 48.4249 9.85698C47.8732 9.85698 47.5297 9.57366 47.4929 8.95755V8.82199H47.4561C47.1005 9.32695 46.4506 9.91798 45.2365 9.91798C44.0592 9.91832 43.164 9.32728 43.164 8.14487ZM47.4929 7.46708V6.32161C47.088 6.54325 46.4627 6.65407 45.8496 6.74048C44.7827 6.88824 43.96 7.0482 43.96 8.14453C43.96 9.03109 44.6224 9.30221 45.3705 9.30221C46.7573 9.30255 47.4929 8.34177 47.4929 7.46742V7.46708Z" fill="#16335B"/>
<path d="M49.7368 3.40265H50.497V4.37596H50.5216C50.9508 3.73544 51.6375 3.26709 52.643 3.26709C53.8203 3.26709 54.6676 3.96928 54.6676 5.25031V9.77052H53.9074V5.32419C53.9074 4.36342 53.3554 3.92014 52.4602 3.92014C51.3804 3.92014 50.498 4.68368 50.498 5.73053V9.77052H49.7368V3.40265Z" fill="#16335B"/>
<path d="M55.6357 8.14487C55.6357 6.62966 56.813 6.32195 58.2477 6.14945C59.4986 6.00169 59.9524 5.92781 59.9524 5.28729V5.16427C59.9524 4.30178 59.4125 3.88324 58.4316 3.88324C57.3033 3.88324 56.7148 4.35126 56.6534 5.29949H55.9053C55.9913 4.06794 56.8005 3.26611 58.4316 3.26611C59.8174 3.26611 60.6758 3.84529 60.6758 5.23714V8.69897C60.6758 9.08091 60.823 9.2412 61.0929 9.25341C61.1786 9.25341 61.2646 9.22866 61.375 9.20393H61.4118V9.75836C61.2491 9.82818 61.0733 9.86182 60.8965 9.85698C60.3448 9.85698 60.0013 9.57366 59.9645 8.95755V8.82199H59.9271C59.5714 9.32695 58.9215 9.91798 57.7075 9.91798C56.5309 9.91832 55.6357 9.32728 55.6357 8.14487ZM59.9645 7.46708V6.32161C59.5596 6.54325 58.9344 6.65407 58.3213 6.74048C57.2543 6.88824 56.4317 7.0482 56.4317 8.14453C56.4317 9.03109 57.094 9.30221 57.8421 9.30221C59.2289 9.30255 59.9645 8.34177 59.9645 7.46742V7.46708Z" fill="#16335B"/>
</g>
<defs>
<clipPath id="clip0_350_20209">
<rect width="61.4118" height="12" fill="white"/>
</clipPath>
</defs>
</svg>
